<?xml version="1.0" encoding="utf-8"?>
<!-- Generator: Adobe Illustrator 20.0.0, SVG Export Plug-In . SVG Version: 6.00 Build 0)  -->
<svg version="1.1" id="Layer_11" xmlns="http://www.w3.org/2000/svg" xmlns:xlink="http://www.w3.org/1999/xlink" x="0px" y="0px"
	 viewBox="0 0 500 500" style="enable-background:new 0 0 500 500;" xml:space="preserve">
<style type="text/css">
	.st0{fill:#1D1D1D;}
	.st1{fill:#111111;}
	.st2{opacity:0.1;fill:#111111;}
	.st3{display:none;fill:#111111;}
</style>
<g id="Layer_7">
	<rect x="181.725" y="379.182" class="st0" width="136.551" height="9.279"/>
	<g id="Layer_9">
		<path class="st0" d="M181.725,379.182v9.279h-3.361C178.364,388.462,179.16,381.866,181.725,379.182z"/>
	</g>
	<g id="Layer_9_copy">
		<path class="st0" d="M318.276,379.182v9.279h3.354C321.63,388.462,320.838,381.866,318.276,379.182z"/>
	</g>
</g>
<g id="Layer_2">
	<g id="Layer_8">
		<rect x="212.872" y="354.383" class="st1" width="74.255" height="25.566"/>
	</g>
	<g id="Layer_3_copy_2">
		<path class="st2" d="M475.174,358.863H24.822V90.89h450.352V358.863z M35.57,348.116h428.857V101.638H35.57V348.116z"/>
	</g>
	<g id="Layer_3_copy">
		<path class="st1" d="M481.74,367.415H18.263V86.982H481.74V367.415z M29.011,356.668h441.982V97.73H29.011V356.668z"/>
	</g>
</g>
<g id="Layer_10">
	<path class="st3" d="M487.5,388.834H13.167v-287H487.5V388.834z M24.167,377.834H476.5v-265H24.167V377.834z"/>
	<rect x="24.167" y="370.292" class="st3" width="452.332" height="10.416"/>
	<g>
		<polygon class="st0" points="29.011,351.946 18.263,367.415 481.74,367.415 470.993,351.946 		"/>
		<polygon class="st0" points="29.011,97.73 18.263,86.982 481.74,86.982 470.993,97.73 		"/>
	</g>
</g>
</svg>
