<svg xmlns="http://www.w3.org/2000/svg" width="16" height="16" viewBox="0 0 16 16"><path fill="#acacac" d="M12.43 8c0 1.04-.84 1.88-1.88 1.88S8.67 9.04 8.67 8s.84-1.88 1.88-1.88 1.88.84 1.88 1.88z"/><path fill="#acacac" d="M8.05 0c-4.42 0-8 3.58-8 8s3.55 7.97 7.98 7.97S16 12.43 16 8c.03-4.42-3.55-8-7.95-8zm-.6 8.05l2.1-3c.3-.1.65-.17 1-.17 1.73 0 3.1 1.4 3.1 3.1 0 1.72-1.4 3.1-3.1 3.1-1.68.02-3.05-1.35-3.1-3.03zm-2 1.82l-.78 1.1C3.38 10.6 2.42 9.4 2.42 8c0-1.73 1.4-3.1 3.1-3.1 1.03 0 1.96.5 2.53 1.27l-.78 1.1C7 6.6 6.34 6.1 5.54 6.1c-1.05 0-1.88.85-1.88 1.88s.8 1.85 1.8 1.9z"></path></svg>
