<?xml version="1.0" encoding="UTF-8" standalone="no"?>
<svg width="42px" height="40px" viewBox="0 0 42 40" version="1.1" xmlns="http://www.w3.org/2000/svg" xmlns:xlink="http://www.w3.org/1999/xlink" xmlns:sketch="http://www.bohemiancoding.com/sketch/ns">
    <!-- Generator: Sketch 3.0.4 (8053) - http://www.bohemiancoding.com/sketch -->
    <title>Imported Layers 3</title>
    <desc>Created with Sketch.</desc>
    <defs></defs>
    <g id="Episode" stroke="none" stroke-width="1" fill="none" fill-rule="evenodd" sketch:type="MSPage">
        <g id="Collection---Episode---1008+" sketch:type="MSArtboardGroup" transform="translate(-211.000000, -2379.000000)" fill="#222222">
            <g id="3.-Body" sketch:type="MSLayerGroup" transform="translate(209.000000, 613.000000)">
                <g id="Episode---Type-4" transform="translate(0.000000, 1744.000000)" sketch:type="MSShapeGroup">
                    <path d="M27.3953488,54.7840426 C31.2749602,54.0691489 33.8368267,51.2510638 35.0766805,46.3393617 C35.8011734,43.4212766 36.0583204,40.8882979 35.8545234,38.7382979 L27.3953488,38.7382979 L27.3953488,22 L44,22 L44,37.4319149 C44,43.5223404 42.7313372,48.9617021 40.1982796,53.7468085 C37.6620211,58.5340426 33.3950888,61.2851064 27.3953488,62 L27.3953488,54.7840426 L27.3953488,54.7840426 Z M2,54.7840426 C5.89714121,54.0691489 8.49416353,51.2510638 9.79642606,46.3393617 C10.5231207,43.4212766 10.754634,40.8882979 10.497397,38.7382979 L2,38.7382979 L2,22 L18.6046512,22 L18.6046512,37.4319149 C18.6046512,43.5223404 17.330256,48.9361702 14.7836092,53.6702128 C12.2358907,58.406383 7.97540216,61.1819149 2,62 L2,54.7840426 L2,54.7840426 Z" id="Imported-Layers-3" transform="translate(23.000000, 42.000000) rotate(-180.000000) translate(-23.000000, -42.000000) "></path>
                </g>
            </g>
        </g>
    </g>
</svg>