<?xml version="1.0" encoding="utf-8"?>
<!-- Generator: Adobe Illustrator 19.0.0, SVG Export Plug-In . SVG Version: 6.00 Build 0)  -->
<svg version="1.1" id="Layer_1" xmlns="http://www.w3.org/2000/svg" xmlns:xlink="http://www.w3.org/1999/xlink" x="0px" y="0px"
	 width="200" height="80" viewBox="210.9 424.1 158.7 82.3" style="enable-background:new 210.9 424.1 158.7 82.3;" xml:space="preserve">
<style type="text/css">
	.st0{fill:#18374F;}
	.st1{font-family:'OpenSans-Extrabold';}
	.st2{font-size:36px;}
	.st3{font-family:'OpenSans-Light';}
	.st4{font-size:26px;}
	.st5{fill:#7EB6BA;}
</style>
<text id="XMLID_1_" transform="matrix(1 0 0 1 213.7026 477.7028)" class="st0 st1 st2">BAYSIDE</text>
<text id="XMLID_2_" transform="matrix(1 0 0 1 210.9459 499.4324)" class="st3 st4">CONSULTING</text>
<path id="XMLID_28_" class="st5" d="M281.3,426.2c0,0,4-2.8,8.7-1.9s7,2.9,11,3.3c0.1,0.2-5.8,1.9-9.8,0.2S282.3,425.6,281.3,426.2z
	"/>
<path id="XMLID_27_" class="st5" d="M292.9,431.3c0,0,5.4-1.9,8.2-1.1c2.9,0.9,10,3.1,17.5,1.4c0.1,0.2-7.4,4.4-12.3,3.5
	C302.4,434.5,297.7,432,292.9,431.3z"/>
<path id="XMLID_26_" class="st5" d="M268.9,435.1c0,0,5.3-3.3,9.9-3.1c4.7,0.2,9,1,14.4,2.7c5.4,1.6,15.9,4.5,26.2-1.2
	c0,0.1-8.4,11.4-17.2,10.8c-8.8-0.7-18.3-5.3-22.6-7S269.8,435.1,268.9,435.1z"/>
<path id="XMLID_25_" class="st5" d="M263.8,439c0,0,6.1-3.4,12.7-1.3s13.3,5.5,15.8,5.5c-0.3,0-6.7,4-15.7-1.1
	C267.6,437,265,439,263.8,439z"/>
<path id="XMLID_22_" class="st5" d="M264.6,431.3c0,0,5.4,1.9,8.2,1.1c2.9-0.9,10-3.1,17.5-1.4c0.1-0.2-7.4-4.4-12.3-3.5
	C274.1,428,269.3,430.6,264.6,431.3z"/>
</svg>
