<?xml version="1.0" encoding="utf-8"?>
<!-- Generator: Adobe Illustrator 22.1.0, SVG Export Plug-In . SVG Version: 6.00 Build 0)  -->
<svg version="1.1" id="Layer_1" xmlns="http://www.w3.org/2000/svg" xmlns:xlink="http://www.w3.org/1999/xlink" x="0px" y="0px"
	 viewBox="0 0 300 73.7" style="enable-background:new 0 0 300 73.7;" xml:space="preserve">
<style type="text/css">
	.st0{fill:#FFFFFF;}
</style>
<g>
	<path class="st0" d="M89.4,24c4.4,0,8.6,1.7,11.3,4.4c1-3.1,2.7-5.8,4.8-8.6c-4.4-3.4-9.9-5.5-16.1-5.5C75,14.4,63,26.1,63,40.8
		c0,14.4,11.6,26.3,26.3,26.3c6.2,0,11.6-2.1,16.1-5.5c-2.1-2.7-3.4-5.5-4.8-8.6c-3.1,2.7-6.8,4.4-11.3,4.4
		c-9.2,0-16.8-7.5-16.8-16.8C72.6,31.5,80.1,24,89.4,24z"/>
	<path class="st0" d="M35,4.8c-1.7,0-3.1,1-3.8,2.4L5.2,65h10.3l3.8-8.2h31.5l3.8,8.2h10.3L39.1,7.6C38.4,5.9,36.7,4.8,35,4.8z
		 M23.7,47.6l11.6-25.7L47,47.6H23.7z"/>
	<path class="st0" d="M159.5,40.8c0-14.4-11.3-25.7-25.3-26.3c-0.3,0-0.7,0.3-0.3,0.7c1,2.1,3.4,6.8,7.5,9.9
		c5.5,4.1,8.6,9.2,8.6,15.4c0,7.9-6.2,16.8-16.4,16.8c-10.3,0-16.4-8.9-16.4-16.8c0-6.2,3.4-11.3,8.6-15.4c4.1-3.4,6.8-8.2,7.5-10.3
		c0.3-0.3,0-0.7-0.3-0.7c-14.4,0.3-25.7,12-25.7,26.3c0,11.6,9.9,25.3,26,25.3c7.2,0,13.3-2.1,17.8-5.8l5.1,4.8h14.4L157.1,52
		C158.5,49,159.5,45.2,159.5,40.8z"/>
	<rect x="223.1" y="15.4" class="st0" width="9.9" height="49.6"/>
	<path class="st0" d="M203.9,40.4c0,10.3-5.1,16.8-13.7,16.8c-8.6,0-13.7-6.5-13.7-16.8v-25h-9.9v25c0,15,9.9,26,23.6,26
		c13.7,0,23.6-10.9,23.6-26v-25h-9.9L203.9,40.4L203.9,40.4z"/>
	<path class="st0" d="M280.6,23.3l-2.1-2.1c-4.4-4.8-9.6-7.2-15.4-7.2c-6.5,0-12.3,2.4-16.4,7.5c-4.4,4.8-6.5,11.3-6.5,18.5
		c0,7.5,2.4,14,6.5,18.8c4.4,4.8,10.3,7.5,16.8,7.5c5.5,0,10.3-2.4,15-6.5l1.7-1.7V65h9.9V15.4h-9.9v7.9H280.6z M276.8,53.1
		c-3.1,3.4-6.8,4.8-11.6,4.8c-4.4,0-8.2-1.7-10.9-5.1c-2.7-3.4-4.1-7.5-4.1-12.7c0-4.8,1.4-8.9,4.4-12.3s6.8-5.1,10.9-5.1
		c4.8,0,8.6,1.7,11.3,5.1s4.4,7.5,4.4,12.7C281.2,45.5,279.9,49.7,276.8,53.1z"/>
</g>
</svg>
