<?xml version="1.0" encoding="utf-8"?>
<!-- Generator: Adobe Illustrator 14.0.0, SVG Export Plug-In . SVG Version: 6.00 Build 43363)  -->
<!DOCTYPE svg PUBLIC "-//W3C//DTD SVG 1.1//EN" "http://www.w3.org/Graphics/SVG/1.1/DTD/svg11.dtd">
<svg version="1.1" id="Layer_1" xmlns="http://www.w3.org/2000/svg" xmlns:xlink="http://www.w3.org/1999/xlink" x="0px" y="0px"
	 width="16px" height="16px" viewBox="0 0 16 16" enable-background="new 0 0 16 16" xml:space="preserve">
<g id="layer1" transform="translate(-291.62063,-284.125)">
	<g id="g3876">
		<path id="path3825" fill="#787878" d="M299.7,285.099c-1.034,0-1.871,0.371-1.871,0.826c0,0.087,0.03,0.169,0.086,0.248
			l-0.004,0.002c1.056,0.863,3.12,0.618,3.605-0.082v0.034c0.037-0.064,0.058-0.133,0.058-0.202l-0.003-0.009
			C301.56,285.464,300.726,285.099,299.7,285.099L299.7,285.099z M301.511,286.294l-0.022,0.773c-0.67,0.8-2.755,0.951-3.685-0.014
			l0.025-0.829l-1.11,0.649c-0.1-0.007-0.202-0.013-0.307-0.013c-1.033,0-1.871,0.371-1.871,0.826c0,0.109,0.05,0.213,0.139,0.309
			c1.07,0.818,3.08,0.572,3.557-0.118l-0.024,0.972c-0.67,0.8-2.755,0.951-3.685-0.014l0.018-0.686l-1.542,0.885l6.669,3.804
			l6.566-3.81l-1.373-0.834l-0.018,0.616c-0.67,0.8-2.755,0.951-3.684-0.014l0.027-0.947c1.021,0.936,3.155,0.708,3.673,0.002
			c0.001-0.001,0.001-0.003,0.003-0.005c0.029-0.057,0.047-0.117,0.047-0.179l-0.002-0.009c-0.011-0.453-0.845-0.817-1.871-0.817
			c-0.127,0-0.372,0.032-0.492,0.042L301.511,286.294L301.511,286.294z M301.598,289.767l-0.024,0.974
			c-0.671,0.8-2.756,0.951-3.686-0.014l0.025-0.947C298.942,290.724,301.101,290.485,301.598,289.767z"/>
		<path id="path3805" fill="#787878" d="M293.096,290.051l6.188,3.572v5.523l-6.188-3.556V290.051z"/>
		<path id="path3805_1_" fill="#787878" d="M300.106,293.617l6.077-3.515l-0.012,5.548l-6.065,3.5V293.617z"/>
	</g>
</g>
</svg>
